<svg xmlns="http://www.w3.org/2000/svg" width="120" height="180" viewBox="0 0 120 180">
  <g id="دعم" transform="translate(-1512.104 -1663.507)">
    <g id="Group_41545" data-name="Group 41545" transform="translate(1512.104 1663.507)">
      <g id="Group_49" data-name="Group 49">
        <path id="Rectangle_160" data-name="Rectangle 160" d="M5,0H51A10,10,0,0,1,61,10V54a5,5,0,0,1-5,5H18A18,18,0,0,1,0,41V5A5,5,0,0,1,5,0Z" transform="translate(0 0)" fill="#f6dc93"/>
      </g>
    </g>
    <path id="Path_8865" data-name="Path 8865" d="M557.572,615.4,572.9,588.979l-18.613-32.032H523.521l-11.51-19.818-9.865,5.657,11.51,19.916-12,20.668H478.633l-11.51-19.818-9.865,5.657,11.246,19.376L453,615.4l18.613,32.081h30.139l15.373,26.472h31.4l10.391,17.986,9.865-5.674-10.819-18.624,14.93-25.72Zm2.187-26.423-12.052,20.766H524.145L511.83,588.489l11.871-20.21h24.005l12.052,20.75ZM466.154,615.4l12.052-20.766h23.562L513.836,615.4l-12.052,20.766H478.156Zm45.726,26.865,12.315-21.256h23.512l12.052,20.766-12.052,20.766H523.7l-11.789-20.325Z" transform="translate(1059.207 1151.564)" fill="#616160"/>
  </g>
</svg>
