<svg xmlns="http://www.w3.org/2000/svg" width="120" height="180" viewBox="0 0 120 180">
  <g id="عمل" transform="translate(-1513.41 -1663.507)">
    <g id="Group_41545" data-name="Group 41545" transform="translate(1513.41 1663.507)">
      <g id="Group_49" data-name="Group 49">
        <path id="Rectangle_160" data-name="Rectangle 160" d="M5,0H51A10,10,0,0,1,61,10V54a5,5,0,0,1-5,5H18A18,18,0,0,1,0,41V5A5,5,0,0,1,5,0Z" transform="translate(0 0)" fill="#f6dc93"/>
      </g>
    </g>
    <g id="svgexport-6_1_" data-name="svgexport-6 (1)" transform="translate(1518.909 1702.564)">
      <g id="Group_41539" data-name="Group 41539" transform="translate(0)">
        <path id="Path_8791" data-name="Path 8791" d="M228.56,127.436l5.24-6.4a10.929,10.929,0,0,0,2.465-6.9V94.756a13.9,13.9,0,0,0-7.956-12.573V74.4a9.559,9.559,0,0,0-17.069-5.92,9.548,9.548,0,0,0-15.009,0,9.547,9.547,0,0,0-15.009,0,9.559,9.559,0,0,0-17.069,5.92V89.425a9.5,9.5,0,0,0,1.231,4.685v18.7a2.06,2.06,0,1,0,4.121,0v-14.8a9.546,9.546,0,0,0,11.717-2.665,9.547,9.547,0,0,0,15.009,0,9.551,9.551,0,0,0,11.705,2.672,9.026,9.026,0,0,0,4.083.973h2.215l-.43,5.432h-2.8a16.6,16.6,0,0,0-16.538,15.555l-.293,4.772a2.06,2.06,0,0,0,1.93,2.183c.043,0,.086,0,.128,0A2.061,2.061,0,0,0,198.287,125l.293-4.772a12.468,12.468,0,0,1,12.425-11.687h4.7a2.061,2.061,0,0,0,2.054-1.9l.606-7.655h.377a2.06,2.06,0,0,0,0-4.121h-6.725a4.966,4.966,0,0,1,0-9.932h10.306a9.819,9.819,0,0,1,9.819,9.819v19.373a6.8,6.8,0,0,1-1.533,4.294l-5.24,6.4a2.06,2.06,0,0,0,3.188,2.61ZM173.717,94.869a5.45,5.45,0,0,1-5.444-5.444V74.4a5.444,5.444,0,0,1,10.888,0V89.425a5.45,5.45,0,0,1-5.444,5.444Zm15.009,0a5.45,5.45,0,0,1-5.444-5.444V74.4a5.444,5.444,0,1,1,10.888,0V89.425A5.45,5.45,0,0,1,188.726,94.869ZM202.932,89.9a9.031,9.031,0,0,0,1.455,4.923,5.421,5.421,0,0,1-6.1-5.4V74.4a5.444,5.444,0,0,1,10.888,0v6.871A9.1,9.1,0,0,0,202.932,89.9ZM213.3,80.816V74.4a5.444,5.444,0,1,1,10.888,0v6.543a13.717,13.717,0,0,0-1.863-.129H213.3Z" transform="translate(-121.763 -47.026)" fill="#585555"/>
        <path id="Path_8792" data-name="Path 8792" d="M357.357,305.708a2.06,2.06,0,0,0-2.9.29l-3.5,4.281a5.07,5.07,0,0,0-1.144,3.2v46.79a2.06,2.06,0,1,0,4.121,0V313.482a.941.941,0,0,1,.212-.594l3.5-4.282A2.06,2.06,0,0,0,357.357,305.708Z" transform="translate(-256.42 -221.39)" fill="#585555"/>
        <path id="Path_8793" data-name="Path 8793" d="M177.068,280.57a14.1,14.1,0,0,1-4.314-10.121V266.03a2.06,2.06,0,1,0-4.121,0v4.418a18.239,18.239,0,0,0,5.581,13.094l1.46,1.4a1.928,1.928,0,0,1,.59,1.383v43.784a2.06,2.06,0,0,0,4.121,0V286.327a6.067,6.067,0,0,0-1.857-4.356Z" transform="translate(-129.551 -191.456)" fill="#585555"/>
        <path id="Path_8797" data-name="Path 8797" d="M54.34,1.036a2.647,2.647,0,0,0-4.2,0L37.058,18.082a2.647,2.647,0,0,0,2.1,4.258h3.886V58.924a2.06,2.06,0,0,0,4.121,0V20.28a2.06,2.06,0,0,0-2.06-2.06H42.146L52.24,5.067,62.334,18.22H59.377a2.06,2.06,0,0,0-2.06,2.06V58.9a2.06,2.06,0,1,0,4.121,0V22.341h3.885a2.647,2.647,0,0,0,2.1-4.259Z" transform="translate(-36.508)" fill="#585555"/>
      </g>
    </g>
  </g>
</svg>
