<svg xmlns="http://www.w3.org/2000/svg" width="120" height="180" viewBox="0 0 120 180">
  <g id="تعزيز" transform="translate(-240.846 -1649.915)">
    <g id="Group_41545" data-name="Group 41545" transform="translate(240.846 1649.915)">
      <g id="Group_49" data-name="Group 49">
        <path id="Rectangle_160" data-name="Rectangle 160" d="M5,0H51A10,10,0,0,1,61,10V54a5,5,0,0,1-5,5H18A18,18,0,0,1,0,41V5A5,5,0,0,1,5,0Z" transform="translate(0 0)" fill="#f6dc93"/>
      </g>
    </g>
    <g id="Group_41856" data-name="Group 41856" transform="translate(251.876 1673.415)">
      <path id="Path_8863" data-name="Path 8863" d="M751.105,559.66H678.7v88H785.089v-66.88H751.105Zm-2.962,21.118H715.635V563.213h32.508Zm-17.73,3.526v17.564H697.905V584.3Zm-14.756,38.709V605.449h32.508v17.564Zm-2.951-17.564v17.564H681.651V605.449Zm17.729,21.118v17.564H697.905V626.567Zm2.962,0h32.508v17.564H733.376V626.567Zm17.73-3.526V605.476H782.16V623.04ZM733.4,601.923V584.358h32.508v17.564Zm-51.747-38.736h31.032v17.564H681.651Zm13.28,21.118v17.564h-13.28V584.3Zm-13.28,42.235h13.28V644.1h-13.28ZM768.835,644.1V626.54h13.3V644.1Zm13.3-42.249h-13.3V584.291h13.3Z" transform="translate(-678.7 -491.157)" fill="#616160"/>
      <path id="Path_8864" data-name="Path 8864" d="M786.58,550.059l-8.2-19.469-38.9,16.416,8.2,19.456ZM776.5,535.2l5.4,12.971-32.427,13.673-5.472-12.971L776.433,535.2Z" transform="translate(-677.61 -530.59)" fill="#616160"/>
    </g>
  </g>
</svg>
