<svg xmlns="http://www.w3.org/2000/svg" width="233.328" height="85.455" viewBox="0 0 233.328 85.455">
  <g id="saaflogosvg" transform="translate(-0.04 -0.006)">
    <path id="Path_1" data-name="Path 1" d="M582.364,280.93,546.28,317.025,510.186,280.93l-6.7,6.229,42.79,42.787,42.813-42.821Z" transform="translate(-355.725 -244.485)" fill="#ca990e"/>
    <path id="Path_2" data-name="Path 2" d="M590.3,250.39l-24.589,24.6-24.6-24.6-6.462,6.462,31.063,31.063,31.051-31.063Z" transform="translate(-375.157 -225.44)" fill="#ca990e"/>
    <path id="Path_3" data-name="Path 3" d="M597.863,219.86l-13.1,13.106L571.656,219.86l-6.466,6.451,19.572,19.572,19.572-19.572Z" transform="translate(-394.203 -206.401)" fill="#ca990e"/>
    <rect id="Rectangle_1" data-name="Rectangle 1" width="12.277" height="12.277" transform="translate(181.869 8.688) rotate(-45)" fill="#ca990e"/>
    <path id="Path_4" data-name="Path 4" d="M176.388,227.454a2,2,0,0,0,1.506-.553,2.175,2.175,0,0,0,.531-1.573,2.115,2.115,0,0,0-.531-1.528,2,2,0,0,0-1.506-.553,1.912,1.912,0,0,0-2.081,2.081,2.145,2.145,0,0,0,.55,1.554,2.04,2.04,0,0,0,1.532.572Z" transform="translate(-150.434 -208.507)" fill="#fff"/>
    <path id="Path_5" data-name="Path 5" d="M237.222,248.357v8.8a4.543,4.543,0,0,1-.892,3.064,4.1,4.1,0,0,1-3.275,1.189h-1.991a4.3,4.3,0,0,1-2.977-.892,4.345,4.345,0,0,1-1.148-3.361v-9.308l-3.655,1.916v7.392a4.543,4.543,0,0,1-.892,3.064,4.1,4.1,0,0,1-3.275,1.189h-1.953a3.647,3.647,0,0,1-4.159-4.253v-7.9l-3.655,1.957v5.947a4.715,4.715,0,0,1-.851,3.064,4.1,4.1,0,0,1-3.271,1.189h-23a32.867,32.867,0,0,0,6.334-7.354v-1.784a16.751,16.751,0,0,0-4.517-4.422,10.388,10.388,0,0,0-11.476-.508,15.567,15.567,0,0,0-5.187,4.844v1.882a33.357,33.357,0,0,0,6.289,7.354H142.014a10.779,10.779,0,0,0,1.935-3.188,9.511,9.511,0,0,0,.7-3.485,9.725,9.725,0,0,0-1.784-6,8.057,8.057,0,0,0-11.773-.629,9.139,9.139,0,0,0-2.382,6.632,9.44,9.44,0,0,0,.7,3.485,10.769,10.769,0,0,0,1.931,3.188H118.765a4.162,4.162,0,0,1-2.977-.937A4.609,4.609,0,0,1,114.658,257v-6.775L111,252.181v5.145a7.787,7.787,0,0,0,1.7,5.228,6.723,6.723,0,0,0,5.4,2.3h15.729a12.316,12.316,0,0,0,2.887-.3,12.023,12.023,0,0,0,2.891.3H173.4a12.454,12.454,0,0,0,4.592-.892,12.34,12.34,0,0,0,4.524.892h23.08a6.444,6.444,0,0,0,5.57-2.51,6.55,6.55,0,0,0,5.567,2.51h2.932a6.454,6.454,0,0,0,5.442-2.51,6.415,6.415,0,0,0,5.567,2.51H233.6a7.123,7.123,0,0,0,5.1-1.916,7.376,7.376,0,0,0,2.168-5.646V246.4Zm-97.079,9.786a6.233,6.233,0,0,1-3.444,2.891,6.342,6.342,0,0,1-3.188-2.465,6.982,6.982,0,0,1-1.272-4,6.116,6.116,0,0,1,.975-3.572,3.952,3.952,0,0,1,3.485-1.743,4.027,4.027,0,0,1,3.188,1.359,5.91,5.91,0,0,1,1.276,3.956,6.82,6.82,0,0,1-1.02,3.568Zm37.83,2.066a14.851,14.851,0,0,1-3.911-3.011,39.362,39.362,0,0,1-3.274-4.039q3.105-3.952,7.151-3.952a8.281,8.281,0,0,1,3.7.975,11.412,11.412,0,0,1,3.527,2.936,35.625,35.625,0,0,1-3.764,4.569A15.253,15.253,0,0,1,177.973,260.209Z" transform="translate(-110.96 -222.609)" fill="#fff"/>
    <path id="Path_6" data-name="Path 6" d="M120.29,328.634a4.538,4.538,0,0,1-1.833-1.129,2.337,2.337,0,0,1-.583-1.611,1.984,1.984,0,0,1,.787-1.6,3.763,3.763,0,0,1,2.443-.726,8.826,8.826,0,0,1,4,.994l1.163-1.656a9.007,9.007,0,0,0-5.232-1.626,6.582,6.582,0,0,0-4.14,1.219,4.272,4.272,0,0,0-1.716,3.546,4.185,4.185,0,0,0,1.366,3.139,12.463,12.463,0,0,0,4.592,2.413q3.011,1.02,3.011,3.342a2.8,2.8,0,0,1-.787,2.123,3.8,3.8,0,0,1-2.759.873,8.52,8.52,0,0,1-4.535-1.193L114.9,338.4a13.947,13.947,0,0,0,3.052,1.528,9.3,9.3,0,0,0,2.936.452,6.542,6.542,0,0,0,4.042-1.223,5.138,5.138,0,0,0,.636-7.558A14.808,14.808,0,0,0,120.29,328.634Z" transform="translate(-113.392 -269.648)" fill="#fff"/>
    <path id="Path_7" data-name="Path 7" d="M217.5,322.2l-6.654,18.4h2.759l1.426-4.14h7.528l1.393,4.14h2.759l-6.651-18.4Zm-1.7,12.006,3.011-8.751,2.992,8.751Z" transform="translate(-173.229 -270.222)" fill="#fff"/>
    <path id="Path_8" data-name="Path 8" d="M320.666,322.2,314,340.6h2.763l1.423-4.14h7.528l1.393,4.14h2.763l-6.647-18.4Zm-1.716,12.006,3.011-8.751,2.992,8.751Z" transform="translate(-237.555 -270.222)" fill="#fff"/>
    <path id="Path_9" data-name="Path 9" d="M322.63,140.329V138.09H311.41v18.4h2.7v-8.4h7.151v-2.239h-7.151v-5.521Z" transform="translate(-194.177 -86.112)" fill="#fff"/>
  </g>
</svg>
