<svg xmlns="http://www.w3.org/2000/svg" width="237" height="86.963" viewBox="0 0 237 86.963">
  <g id="saaflogosvg" transform="translate(0 0)">
    <g id="Group_41803" data-name="Group 41803" transform="translate(150.04 0)">
      <path id="Path_8811" data-name="Path 8811" d="M583.614,280.93,546.959,317.6,510.292,280.93l-6.8,6.328,43.469,43.465,43.492-43.5Z" transform="translate(-503.49 -243.76)" fill="#ca990e"/>
      <path id="Path_8812" data-name="Path 8812" d="M591.183,250.39,566.2,275.38l-24.99-24.99-6.565,6.565L566.2,288.51l31.543-31.555Z" transform="translate(-522.705 -224.971)" fill="#ca990e"/>
      <path id="Path_8813" data-name="Path 8813" d="M598.381,219.86l-13.309,13.313L571.759,219.86l-6.569,6.553L585.072,246.3l19.882-19.882Z" transform="translate(-541.569 -206.159)" fill="#ca990e"/>
      <rect id="Rectangle_17367" data-name="Rectangle 17367" width="12.472" height="12.472" transform="translate(34.675 8.819) rotate(-45)" fill="#ca990e"/>
    </g>
    <g id="Group_41804" data-name="Group 41804" transform="translate(0 12.452)">
      <g id="Group_41801" data-name="Group 41801">
        <path id="Path_8814" data-name="Path 8814" d="M176.421,227.521a2.026,2.026,0,0,0,1.529-.562,2.21,2.21,0,0,0,.539-1.6,2.149,2.149,0,0,0-.539-1.552,2.026,2.026,0,0,0-1.529-.562,1.942,1.942,0,0,0-2.114,2.114,2.179,2.179,0,0,0,.558,1.579A2.073,2.073,0,0,0,176.421,227.521Z" transform="translate(-150.096 -223.238)" fill="#1b5052"/>
        <path id="Path_8815" data-name="Path 8815" d="M239.223,248.4v8.935a4.615,4.615,0,0,1-.906,3.112,4.17,4.17,0,0,1-3.326,1.208h-2.023a4.368,4.368,0,0,1-3.024-.906,4.413,4.413,0,0,1-1.166-3.414v-9.455l-3.713,1.946v7.509a4.615,4.615,0,0,1-.906,3.112,4.17,4.17,0,0,1-3.326,1.208h-1.984a3.7,3.7,0,0,1-4.225-4.32V249.3l-3.713,1.988v6.041a4.789,4.789,0,0,1-.864,3.112,4.166,4.166,0,0,1-3.323,1.208H183.362a33.387,33.387,0,0,0,6.435-7.471v-1.812a17.019,17.019,0,0,0-4.588-4.493,10.553,10.553,0,0,0-11.658-.516,15.814,15.814,0,0,0-5.269,4.921v1.912a33.885,33.885,0,0,0,6.389,7.471H142.505a10.95,10.95,0,0,0,1.965-3.238,9.662,9.662,0,0,0,.711-3.54,9.879,9.879,0,0,0-1.812-6.091,8.185,8.185,0,0,0-11.96-.639,9.284,9.284,0,0,0-2.42,6.737,9.589,9.589,0,0,0,.715,3.541,10.938,10.938,0,0,0,1.961,3.238H118.888a4.228,4.228,0,0,1-3.024-.952,4.682,4.682,0,0,1-1.147-3.54V250.3L111,252.281v5.227a7.911,7.911,0,0,0,1.728,5.311,6.829,6.829,0,0,0,5.483,2.332h15.978a12.512,12.512,0,0,0,2.933-.306,12.211,12.211,0,0,0,2.936.306h34.327a12.651,12.651,0,0,0,4.665-.906,12.535,12.535,0,0,0,4.6.906h23.445a6.546,6.546,0,0,0,5.659-2.55,6.653,6.653,0,0,0,5.655,2.55h2.978a6.556,6.556,0,0,0,5.529-2.55,6.517,6.517,0,0,0,5.655,2.55h2.978a7.235,7.235,0,0,0,5.181-1.946,7.493,7.493,0,0,0,2.2-5.735V246.408ZM140.6,258.337a6.331,6.331,0,0,1-3.5,2.936,6.442,6.442,0,0,1-3.238-2.5,7.092,7.092,0,0,1-1.292-4.068,6.213,6.213,0,0,1,.99-3.628,4.015,4.015,0,0,1,3.54-1.77,4.091,4.091,0,0,1,3.238,1.38,6,6,0,0,1,1.3,4.018,6.928,6.928,0,0,1-1.036,3.625Zm38.429,2.1a15.089,15.089,0,0,1-3.973-3.059,39.987,39.987,0,0,1-3.326-4.1q3.154-4.015,7.265-4.015a8.412,8.412,0,0,1,3.758.99,11.592,11.592,0,0,1,3.583,2.982,36.194,36.194,0,0,1-3.823,4.642A15.5,15.5,0,0,1,179.034,260.436Z" transform="translate(-111 -237.179)" fill="#1b5052"/>
      </g>
      <g id="Group_41802" data-name="Group 41802" transform="translate(1.491 42.367)">
        <path id="Path_8816" data-name="Path 8816" d="M120.375,328.751a4.611,4.611,0,0,1-1.862-1.147,2.374,2.374,0,0,1-.593-1.636,2.015,2.015,0,0,1,.8-1.625,3.824,3.824,0,0,1,2.481-.738,8.966,8.966,0,0,1,4.06,1.009l1.181-1.682a9.15,9.15,0,0,0-5.315-1.652,6.686,6.686,0,0,0-4.206,1.239,4.34,4.34,0,0,0-1.743,3.6,4.252,4.252,0,0,0,1.388,3.189,12.661,12.661,0,0,0,4.665,2.451q3.059,1.036,3.059,3.4a2.848,2.848,0,0,1-.8,2.156,3.858,3.858,0,0,1-2.8.887,8.657,8.657,0,0,1-4.607-1.212l-1.181,1.682a14.168,14.168,0,0,0,3.1,1.552,9.443,9.443,0,0,0,2.982.459,6.645,6.645,0,0,0,4.106-1.243,5.219,5.219,0,0,0,.646-7.677A15.042,15.042,0,0,0,120.375,328.751Z" transform="translate(-114.9 -321.279)" fill="#1b5052"/>
        <path id="Path_8817" data-name="Path 8817" d="M217.61,322.2l-6.76,18.693h2.8l1.449-4.206h7.647l1.415,4.206h2.8L220.21,322.2Zm-1.732,12.2,3.059-8.889,3.04,8.889Z" transform="translate(-174.163 -321.848)" fill="#1b5052"/>
        <path id="Path_8818" data-name="Path 8818" d="M320.771,322.2,314,340.893h2.806l1.445-4.206H325.9l1.415,4.206h2.806L323.367,322.2Zm-1.744,12.2,3.059-8.889,3.04,8.889Z" transform="translate(-237.874 -321.848)" fill="#1b5052"/>
        <path id="Path_8819" data-name="Path 8819" d="M322.808,140.365V138.09h-11.4v18.693h2.745v-8.534h7.265v-2.275h-7.265v-5.609Z" transform="translate(-193.848 -137.738)" fill="#1b5052"/>
      </g>
    </g>
  </g>
</svg>
